/* XPM */
static char *_559843d748e4ad68ea13d3e32fda30d0kaJJNSL73r7W9xZ[] = {
/* columns rows colors chars-per-pixel */
"32 32 74 1 ",
"  c #0E0104",
". c #140106",
"X c #190107",
"o c #170108",
"O c #1C0209",
"+ c #23050B",
"@ c #2B070E",
"# c #2D080F",
"$ c #31070F",
"% c #31090F",
"& c #2D0710",
"* c #2E0910",
"= c #340A12",
"- c #3B0B14",
"; c #420D16",
": c #450E17",
"> c #480C17",
", c #410E18",
"< c #450D19",
"1 c #4A0F19",
"2 c #4C0F1A",
"3 c #530F19",
"4 c #47101A",
"5 c #481019",
"6 c #4D101B",
"7 c #4F111C",
"8 c #51101A",
"9 c #55111B",
"0 c #53111D",
"q c #57111E",
"w c #56141E",
"e c #59131F",
"r c #5B121F",
"t c #5E131F",
"y c #5E141F",
"u c #62131F",
"i c #5D1320",
"p c #5D1421",
"a c #5F1420",
"s c #5F1923",
"d c #621320",
"f c #631522",
"g c #641521",
"h c #641623",
"j c #671624",
"k c #6A1521",
"l c #6C1623",
"z c #6B1724",
"x c #611823",
"c c #651925",
"v c #691823",
"b c #6C1926",
"n c #6B1C28",
"m c #701725",
"M c #711926",
"N c #751927",
"B c #731A28",
"V c #741B29",
"C c #781928",
"Z c #781A29",
"A c #7B1E2C",
"S c #7C1D2D",
"D c #7E1E2C",
"F c #7D202F",
"G c #821D2D",
"H c #821E2C",
"J c #891E2E",
"K c #8C1E2E",
"L c #841F30",
"P c #8F1F31",
"I c #83212E",
"U c #8B2131",
"Y c #952334",
"T c #A12234",
/* pixels */
"  ..XOX.  ..........X... ...... ",
"...XXXO...O++OoOOoOOOOO....Xo...",
"XX..XXX.OO++++@+@+*@+++Oo...oOXX",
"X...XXXXO++=@@=##=-=+O+++O...XoO",
"...XXOoXO+=--===#*-;=++@+OoX...O",
"..X.XoXO@=--<<--==11=++@&++O.X.o",
"....O+@@=--=1q<--;62;=+#@@+O... ",
"...oO@#@*;<6qir00822,==#+##+O...",
"X.o+++###-:dfrfa99331:;#+=-=+X..",
"XXO@===---;igrq60autr81==--=+X..",
".o++=-;1q75yklxwSHzw4qf6---=@OOX",
" X++=-1iffgmCBbbSSb0<aj0=--=#++O",
"..+@==1q7gNCzNKHvgr6100-=<:-=+OX",
"XO@=-*<85qcbBVIICMg5;wq--11-=+O.",
"X+#---8ifaaBJVsFHUUnwzz6;:;-=@+.",
"X+@=-:0azkgCHCBHMYTPMki0;---=@@o",
"oO+#%=-1aa0gmCSHMHJHml061=-;-#@o",
"XO+++=-15<6fkHUCgxvkggair<--=@o.",
".O+=*-;-7fgCBSUSSbAcfzi7r0:-#O.o",
".O+&*=-=6mmmmbvSPCcxzz7-<2>;=+oo",
".O+#=#--4ggfftqvLSaaa6<<<1:-@++X",
".O+@@#;12q6<568qfarcr;;11;-=+++O",
"XO+O+=;<86--70985-1rq1;-:==#+oOX",
"XOOO+#==:;-0gf04<--8q<#=;==+O...",
".XX++++#-==0ta6681-12-#=-#+X....",
"X.o+O+++===-;:-;17;<-*=-=++O....",
"o..XXoO+@#=======;<<=@=-#XOO...X",
".o..XX++@@%=##%===--==##+..oX.XX",
"X+X....++++@+@#=-=*@#@+OOO....XX",
".OO....ooO+@@#@#=$+++OOXX.....Xo",
".XX..ooOo.OO+@++@@+o.X....X..X..",
"XO.......O..oOoOoOOX.....XX...o."
};
